<svg width="40" height="40" fill="none" xmlns="http://www.w3.org/2000/svg"><g clip-path="url(#a)"><path d="m39.727 36.633-9.485-9.485a.928.928 0 0 0-.664-.273h-1.031A16.206 16.206 0 0 0 32.5 16.25C32.5 7.273 25.227 0 16.25 0S0 7.273 0 16.25 7.273 32.5 16.25 32.5c4.063 0 7.773-1.492 10.625-3.953v1.031c0 .25.102.485.273.664l9.485 9.485a.938.938 0 0 0 1.328 0l1.766-1.766a.938.938 0 0 0 0-1.328zM16.25 28.75c-6.906 0-12.5-5.594-12.5-12.5s5.594-12.5 12.5-12.5 12.5 5.594 12.5 12.5-5.594 12.5-12.5 12.5z" fill="url(#b)"/></g><defs><linearGradient id="b" x1="0" y1="18.948" x2="40.019" y2="19.341" gradientUnits="userSpaceOnUse"><stop stop-color="#4A5DEA"/><stop offset="1" stop-color="#914AFF"/></linearGradient><clipPath id="a"><path fill="#fff" d="M0 0h40v40H0z"/></clipPath></defs></svg>