<svg width="30" height="40" fill="none" xmlns="http://www.w3.org/2000/svg"><path d="M29.516 13.117a3.538 3.538 0 0 0-3.094-1.789h-7.375l2.242-6.836A3.563 3.563 0 0 0 17.83 0H7.632c-1.781 0-3.305 1.336-3.5 2.898L.039 19.477a3.767 3.767 0 0 0 .883 2.984A3.74 3.74 0 0 0 3.75 23.75h7.664L8.688 35.602a3.566 3.566 0 0 0 .671 3.039A3.538 3.538 0 0 0 12.164 40c1.274 0 2.461-.688 3.031-1.688l14.313-21.617a3.516 3.516 0 0 0 .008-3.578zM12.508 35.734 16.125 20H3.711L7.633 3.75l9.969-.07-3.735 11.398h12.227L12.508 35.734z" fill="url(#a)"/><defs><linearGradient id="a" x1=".004" y1="18.947" x2="30.015" y2="19.168" gradientUnits="userSpaceOnUse"><stop stop-color="#4A5DEA"/><stop offset="1" stop-color="#914AFF"/></linearGradient></defs></svg>