<svg width="40" height="36" fill="none" xmlns="http://www.w3.org/2000/svg"><path d="M36.25 8H30V4.25A3.75 3.75 0 0 0 26.25.5h-12.5A3.75 3.75 0 0 0 10 4.25V8H3.75A3.75 3.75 0 0 0 0 11.75v20a3.75 3.75 0 0 0 3.75 3.75h32.5A3.75 3.75 0 0 0 40 31.75v-20A3.75 3.75 0 0 0 36.25 8zm-22.5-3.75h12.5V8h-12.5V4.25zm-9.531 7.5H35.78a.47.47 0 0 1 .469.469V18H3.75v-5.781a.47.47 0 0 1 .469-.469zm31.562 20H4.22a.47.47 0 0 1-.469-.469V21.75H15v1.875c0 1.035.84 1.875 1.875 1.875h6.25c1.035 0 1.875-.84 1.875-1.875V21.75h11.25v9.531a.47.47 0 0 1-.469.469z" fill="url(#a)"/><defs><linearGradient id="a" x1="0" y1="17.079" x2="40.016" y2="17.528" gradientUnits="userSpaceOnUse"><stop stop-color="#4A5DEA"/><stop offset="1" stop-color="#914AFF"/></linearGradient></defs></svg>